<?xml version="1.0" encoding="UTF-8"?>
<svg width="80px" height="80px" viewBox="0 0 80 80" version="1.1" xmlns="http://www.w3.org/2000/svg" xmlns:xlink="http://www.w3.org/1999/xlink">
    <title>Icons (BXP)/meine-bestellung Copy 2</title>
    <g id="Symbols" stroke="none" stroke-width="1" fill="none" fill-rule="evenodd">
        <g id="Icons-(BXP)/meine-bestellung" transform="translate(0.000000, -0.000000)">
            <rect id="background" x="0" y="0" width="80" height="80"></rect>
            <path d="M73.3141822,28.8330729 C73.3089872,28.5884846 73.2482931,28.3482729 73.1366821,28.1305727 C73.1266821,28.1130727 73.1091821,28.1030727 73.1016821,28.0855727 C73.0616821,28.0155727 73.0041821,27.9680727 72.9566821,27.9030726 C72.835576,27.7424824 72.6854942,27.6059672 72.514182,27.5005725 C72.471682,27.4755725 72.454182,27.4255725 72.4091819,27.4055725 L36.2066735,9.40806834 C35.7408445,9.17597063 35.1932837,9.1750457 34.7266732,9.40556834 L7.59666688,22.7805715 C7.55666687,22.8005715 7.53916687,22.8455715 7.49916686,22.8680715 C7.31189976,22.9777969 7.14933255,23.1250436 7.02166675,23.3005716 C6.98166674,23.3530716 6.93416673,23.3930716 6.90166672,23.4530716 C6.88666672,23.4805716 6.85916671,23.4955716 6.84666671,23.5230716 C6.73947355,23.7437139 6.68228089,23.9852889 6.67916667,24.2305718 C6.67916667,24.2455718 6.66666667,24.2580718 6.66666667,24.2730718 L6.66666667,50.5080779 C6.66666667,51.135578 7.01916675,51.7080782 7.57916688,51.9955782 L44.2091754,70.5955826 C44.6903137,70.8381269 45.2587542,70.8344055 45.7366757,70.5855826 L72.4391819,56.6755793 C72.9896482,56.3884616 73.3341826,55.8189247 73.3341826,55.198079 L73.3341826,28.8955729 C73.3341826,28.8705729 73.3166822,28.8530729 73.3141822,28.8280729 L73.3141822,28.8330729 Z M35.4591734,12.7630691 L67.9841809,28.9330729 L58.6316787,33.795574 L26.2416712,17.3080702 L35.4566734,12.7655691 L35.4591734,12.7630691 Z M44.9541756,40.9055757 L12.0666679,24.2955718 L22.5116703,19.1455706 L54.9991779,35.6830744 L44.9541756,40.9055757 L44.9541756,40.9055757 Z M9.99916744,26.9855724 L43.2966752,43.8055763 L43.2966752,66.3955816 L9.99916744,49.4905777 L9.99916744,26.9855724 Z M46.629176,66.3655816 L46.629176,43.7930763 L69.9991814,31.6430735 L69.9991814,54.1930787 L46.629176,66.3655816 Z" id="meine-bestellung" fill="#D4021D"></path>
        </g>
    </g>
</svg>